<svg xmlns="http://www.w3.org/2000/svg" xmlns:xlink="http://www.w3.org/1999/xlink" width="126" zoomAndPan="magnify" viewBox="0 0 94.5 33.749998" height="45" preserveAspectRatio="xMidYMid meet" version="1.0"><defs><filter x="0%" y="0%" width="100%" height="100%" id="a2ec59a35a"><feColorMatrix values="0 0 0 0 1 0 0 0 0 1 0 0 0 0 1 0 0 0 1 0" color-interpolation-filters="sRGB"/></filter><g/><clipPath id="a6bd2f810e"><path d="M 0.0976562 0 L 29.789062 0 L 29.789062 29.6875 L 0.0976562 29.6875 Z M 0.0976562 0 " clip-rule="nonzero"/></clipPath><clipPath id="18788b18e2"><path d="M 14.945312 0 C 6.746094 0 0.0976562 6.644531 0.0976562 14.84375 C 0.0976562 23.042969 6.746094 29.6875 14.945312 29.6875 C 23.140625 29.6875 29.789062 23.042969 29.789062 14.84375 C 29.789062 6.644531 23.140625 0 14.945312 0 Z M 14.945312 0 " clip-rule="nonzero"/></clipPath><clipPath id="b15fba4dd3"><path d="M 6.777344 7.589844 L 19.46875 7.589844 L 19.46875 22.191406 L 6.777344 22.191406 Z M 6.777344 7.589844 " clip-rule="nonzero"/></clipPath><clipPath id="01016237d0"><path d="M 7.183594 7.59375 C 19.929688 8.792969 20.527344 18.011719 18.578125 20.261719 C 16.929688 22.285156 10.109375 22.886719 8.160156 21.160156 C 5.835938 19.210938 7.183594 7.59375 7.183594 7.59375 " clip-rule="nonzero"/></clipPath><mask id="03d58bbe33"><g filter="url(#a2ec59a35a)"><rect x="-9.45" width="113.4" fill="#000000" y="-3.375" height="40.499998" fill-opacity="0.5"/></g></mask><clipPath id="68fc16803a"><path d="M 0.777344 0.589844 L 13.46875 0.589844 L 13.46875 15.191406 L 0.777344 15.191406 Z M 0.777344 0.589844 " clip-rule="nonzero"/></clipPath><clipPath id="147d00f0b3"><path d="M 1.183594 0.59375 C 13.929688 1.792969 14.527344 11.011719 12.578125 13.261719 C 10.929688 15.285156 4.109375 15.886719 2.160156 14.160156 C -0.164062 12.210938 1.183594 0.59375 1.183594 0.59375 " clip-rule="nonzero"/></clipPath><clipPath id="6cd13cb106"><rect x="0" width="14" y="0" height="16"/></clipPath><clipPath id="0e98da5e04"><path d="M 18.480469 6 L 23.019531 6 L 23.019531 10.574219 L 18.480469 10.574219 Z M 18.480469 6 " clip-rule="nonzero"/></clipPath><clipPath id="b1118cc700"><path d="M 23.003906 8.265625 C 21.503906 10.515625 20.527344 10.589844 19.929688 10.367188 C 19.402344 10.140625 18.730469 9.390625 18.578125 8.792969 C 18.429688 8.191406 18.730469 7.21875 19.179688 6.769531 C 19.554688 6.316406 20.527344 5.941406 21.128906 6.09375 C 21.726562 6.167969 22.550781 6.769531 22.851562 7.367188 C 23.078125 7.890625 23.003906 8.941406 22.703125 9.464844 C 22.402344 9.992188 21.503906 10.441406 20.902344 10.515625 C 20.453125 10.589844 19.929688 10.441406 19.554688 10.140625 C 19.027344 9.765625 18.578125 8.867188 18.503906 8.265625 C 18.503906 7.742188 18.730469 7.144531 19.027344 6.769531 C 19.328125 6.394531 19.929688 6.019531 20.453125 6.019531 C 21.054688 5.941406 21.953125 6.242188 22.402344 6.691406 C 22.777344 6.992188 23.003906 8.117188 23.003906 8.117188 " clip-rule="nonzero"/></clipPath></defs><g clip-path="url(#a6bd2f810e)"><g clip-path="url(#18788b18e2)"><path fill="#2563eb" d="M 0.0976562 0 L 29.789062 0 L 29.789062 29.6875 L 0.0976562 29.6875 Z M 0.0976562 0 " fill-opacity="1" fill-rule="nonzero"/></g></g><g clip-path="url(#b15fba4dd3)"><g clip-path="url(#01016237d0)"><g mask="url(#03d58bbe33)"><g transform="matrix(1, 0, 0, 1, 6, 7)"><g clip-path="url(#6cd13cb106)"><g clip-path="url(#68fc16803a)"><g clip-path="url(#147d00f0b3)"><rect x="-26.79" width="136.08" fill="#ffffff" height="48.599997" y="-14.425" fill-opacity="1"/></g></g></g></g></g></g></g><g clip-path="url(#0e98da5e04)"><g clip-path="url(#b1118cc700)"><path fill="#ffffff" d="M 15.503906 3.019531 L 26.078125 3.019531 L 26.078125 13.589844 L 15.503906 13.589844 Z M 15.503906 3.019531 " fill-opacity="1" fill-rule="nonzero"/></g></g><g fill="#000000" fill-opacity="1"><g transform="translate(62.129245, 25.153042)"><g><path d="M 4.828125 -7.96875 C 5.171875 -7.96875 5.476562 -7.9375 5.75 -7.875 L 5.59375 -6.78125 C 5.269531 -6.851562 4.984375 -6.890625 4.734375 -6.890625 C 4.097656 -6.890625 3.554688 -6.628906 3.109375 -6.109375 C 2.660156 -5.597656 2.4375 -4.957031 2.4375 -4.1875 L 2.4375 0 L 1.25 0 L 1.25 -7.8125 L 2.234375 -7.8125 L 2.375 -6.375 L 2.421875 -6.375 C 2.710938 -6.882812 3.0625 -7.273438 3.46875 -7.546875 C 3.882812 -7.828125 4.335938 -7.96875 4.828125 -7.96875 Z M 4.828125 -7.96875 "/></g></g></g><g fill="#000000" fill-opacity="1"><g transform="translate(68.092027, 25.153042)"><g><path d="M 2.375 -7.8125 L 2.375 -2.75 C 2.375 -2.113281 2.515625 -1.632812 2.796875 -1.3125 C 3.085938 -1 3.546875 -0.84375 4.171875 -0.84375 C 4.984375 -0.84375 5.578125 -1.066406 5.953125 -1.515625 C 6.335938 -1.960938 6.53125 -2.691406 6.53125 -3.703125 L 6.53125 -7.8125 L 7.71875 -7.8125 L 7.71875 0 L 6.734375 0 L 6.5625 -1.046875 L 6.5 -1.046875 C 6.257812 -0.660156 5.921875 -0.363281 5.484375 -0.15625 C 5.054688 0.0390625 4.566406 0.140625 4.015625 0.140625 C 3.066406 0.140625 2.351562 -0.0820312 1.875 -0.53125 C 1.40625 -0.988281 1.171875 -1.710938 1.171875 -2.703125 L 1.171875 -7.8125 Z M 2.375 -7.8125 "/></g></g></g><g fill="#000000" fill-opacity="1"><g transform="translate(77.057604, 25.153042)"><g><path d="M 6.296875 -2.140625 C 6.296875 -1.410156 6.023438 -0.847656 5.484375 -0.453125 C 4.941406 -0.0546875 4.179688 0.140625 3.203125 0.140625 C 2.160156 0.140625 1.351562 -0.0195312 0.78125 -0.34375 L 0.78125 -1.453125 C 1.15625 -1.253906 1.554688 -1.097656 1.984375 -0.984375 C 2.410156 -0.878906 2.828125 -0.828125 3.234375 -0.828125 C 3.847656 -0.828125 4.320312 -0.925781 4.65625 -1.125 C 4.988281 -1.320312 5.15625 -1.625 5.15625 -2.03125 C 5.15625 -2.332031 5.019531 -2.59375 4.75 -2.8125 C 4.488281 -3.03125 3.976562 -3.285156 3.21875 -3.578125 C 2.488281 -3.847656 1.96875 -4.082031 1.65625 -4.28125 C 1.351562 -4.488281 1.125 -4.71875 0.96875 -4.96875 C 0.820312 -5.226562 0.75 -5.539062 0.75 -5.90625 C 0.75 -6.539062 1.007812 -7.039062 1.53125 -7.40625 C 2.050781 -7.78125 2.765625 -7.96875 3.671875 -7.96875 C 4.503906 -7.96875 5.328125 -7.796875 6.140625 -7.453125 L 5.71875 -6.484375 C 4.925781 -6.804688 4.210938 -6.96875 3.578125 -6.96875 C 3.015625 -6.96875 2.59375 -6.878906 2.3125 -6.703125 C 2.03125 -6.523438 1.890625 -6.285156 1.890625 -5.984375 C 1.890625 -5.765625 1.941406 -5.582031 2.046875 -5.4375 C 2.148438 -5.289062 2.320312 -5.148438 2.5625 -5.015625 C 2.800781 -4.890625 3.257812 -4.695312 3.9375 -4.4375 C 4.863281 -4.101562 5.488281 -3.765625 5.8125 -3.421875 C 6.132812 -3.078125 6.296875 -2.648438 6.296875 -2.140625 Z M 6.296875 -2.140625 "/></g></g></g><g fill="#000000" fill-opacity="1"><g transform="translate(84.026077, 25.153042)"><g><path d="M 3.78125 -0.828125 C 3.988281 -0.828125 4.1875 -0.84375 4.375 -0.875 C 4.570312 -0.90625 4.726562 -0.941406 4.84375 -0.984375 L 4.84375 -0.078125 C 4.71875 -0.015625 4.53125 0.0351562 4.28125 0.078125 C 4.03125 0.117188 3.804688 0.140625 3.609375 0.140625 C 2.097656 0.140625 1.34375 -0.65625 1.34375 -2.25 L 1.34375 -6.890625 L 0.21875 -6.890625 L 0.21875 -7.46875 L 1.34375 -7.96875 L 1.84375 -9.625 L 2.53125 -9.625 L 2.53125 -7.8125 L 4.796875 -7.8125 L 4.796875 -6.890625 L 2.53125 -6.890625 L 2.53125 -2.296875 C 2.53125 -1.828125 2.640625 -1.460938 2.859375 -1.203125 C 3.085938 -0.953125 3.394531 -0.828125 3.78125 -0.828125 Z M 3.78125 -0.828125 "/></g></g></g><g fill="#2563eb" fill-opacity="1"><g transform="translate(46.297739, 25.153042)"><g><path d="M 2.953125 -8.359375 C 2.953125 -8.023438 3.035156 -7.707031 3.203125 -7.40625 C 3.378906 -7.113281 3.675781 -6.757812 4.09375 -6.34375 C 4.695312 -6.695312 5.117188 -7.023438 5.359375 -7.328125 C 5.609375 -7.628906 5.734375 -7.976562 5.734375 -8.375 C 5.734375 -8.738281 5.609375 -9.035156 5.359375 -9.265625 C 5.117188 -9.492188 4.789062 -9.609375 4.375 -9.609375 C 3.957031 -9.609375 3.613281 -9.492188 3.34375 -9.265625 C 3.082031 -9.046875 2.953125 -8.742188 2.953125 -8.359375 Z M 4.0625 -0.921875 C 5.207031 -0.921875 6.15625 -1.285156 6.90625 -2.015625 L 3.796875 -5.046875 C 3.265625 -4.722656 2.890625 -4.453125 2.671875 -4.234375 C 2.453125 -4.023438 2.289062 -3.800781 2.1875 -3.5625 C 2.082031 -3.320312 2.03125 -3.046875 2.03125 -2.734375 C 2.03125 -2.171875 2.210938 -1.726562 2.578125 -1.40625 C 2.953125 -1.082031 3.445312 -0.921875 4.0625 -0.921875 Z M 0.8125 -2.703125 C 0.8125 -3.316406 0.972656 -3.863281 1.296875 -4.34375 C 1.628906 -4.820312 2.222656 -5.300781 3.078125 -5.78125 C 2.671875 -6.238281 2.394531 -6.582031 2.25 -6.8125 C 2.113281 -7.039062 2 -7.28125 1.90625 -7.53125 C 1.820312 -7.789062 1.78125 -8.054688 1.78125 -8.328125 C 1.78125 -9.035156 2.015625 -9.585938 2.484375 -9.984375 C 2.953125 -10.390625 3.601562 -10.59375 4.4375 -10.59375 C 5.195312 -10.59375 5.796875 -10.394531 6.234375 -10 C 6.679688 -9.601562 6.90625 -9.050781 6.90625 -8.34375 C 6.90625 -7.832031 6.742188 -7.359375 6.421875 -6.921875 C 6.097656 -6.492188 5.566406 -6.0625 4.828125 -5.625 L 7.71875 -2.828125 C 7.988281 -3.128906 8.203125 -3.476562 8.359375 -3.875 C 8.523438 -4.269531 8.660156 -4.703125 8.765625 -5.171875 L 9.96875 -5.171875 C 9.644531 -3.804688 9.15625 -2.773438 8.5 -2.078125 L 10.640625 0 L 9 0 L 7.6875 -1.265625 C 7.125 -0.765625 6.550781 -0.40625 5.96875 -0.1875 C 5.382812 0.03125 4.738281 0.140625 4.03125 0.140625 C 3.007812 0.140625 2.21875 -0.109375 1.65625 -0.609375 C 1.09375 -1.117188 0.8125 -1.816406 0.8125 -2.703125 Z M 0.8125 -2.703125 "/></g></g></g><g fill="#2563eb" fill-opacity="1"><g transform="translate(56.960855, 25.153042)"><g><path d="M 3.78125 -0.828125 C 3.988281 -0.828125 4.1875 -0.84375 4.375 -0.875 C 4.570312 -0.90625 4.726562 -0.941406 4.84375 -0.984375 L 4.84375 -0.078125 C 4.71875 -0.015625 4.53125 0.0351562 4.28125 0.078125 C 4.03125 0.117188 3.804688 0.140625 3.609375 0.140625 C 2.097656 0.140625 1.34375 -0.65625 1.34375 -2.25 L 1.34375 -6.890625 L 0.21875 -6.890625 L 0.21875 -7.46875 L 1.34375 -7.96875 L 1.84375 -9.625 L 2.53125 -9.625 L 2.53125 -7.8125 L 4.796875 -7.8125 L 4.796875 -6.890625 L 2.53125 -6.890625 L 2.53125 -2.296875 C 2.53125 -1.828125 2.640625 -1.460938 2.859375 -1.203125 C 3.085938 -0.953125 3.394531 -0.828125 3.78125 -0.828125 Z M 3.78125 -0.828125 "/></g></g></g><g fill="#000000" fill-opacity="1"><g transform="translate(32.973034, 25.153042)"><g><path d="M 7.984375 0 L 6.6875 -3.3125 L 2.515625 -3.3125 L 1.234375 0 L 0 0 L 4.125 -10.46875 L 5.140625 -10.46875 L 9.25 0 Z M 6.3125 -4.40625 L 5.09375 -7.640625 C 4.9375 -8.046875 4.773438 -8.546875 4.609375 -9.140625 C 4.503906 -8.679688 4.359375 -8.179688 4.171875 -7.640625 L 2.9375 -4.40625 Z M 6.3125 -4.40625 "/></g></g></g><g fill="#000000" fill-opacity="1"><g transform="translate(42.216773, 25.153042)"><g><path d="M 1.4375 0 L 1.4375 -10.421875 L 2.640625 -10.421875 L 2.640625 0 Z M 1.4375 0 "/></g></g></g></svg>
